<svg width="813" height="936" viewBox="0 0 813 936" fill="none" xmlns="http://www.w3.org/2000/svg">
<rect y="19" width="93" height="57" fill="#675145"/>
<rect x="202" y="585" width="168" height="57" fill="#675145"/>
<rect x="344" y="760" width="211" height="57" fill="#675145"/>
<rect x="127" y="401" width="152" height="57" fill="#675145"/>
<rect x="93" y="226" width="93" height="57" fill="#675145"/>
<line x1="93.5" y1="19" x2="93.5" y2="935" stroke="#E1DFDB" stroke-opacity="0.2"/>
<line x1="0.5" y1="19" x2="0.499962" y2="935" stroke="#E1DFDB" stroke-opacity="0.2"/>
<line x1="185.5" y1="19" x2="185.5" y2="935" stroke="#E1DFDB" stroke-opacity="0.2"/>
<line x1="812.5" y1="2.31979e-08" x2="812.5" y2="916" stroke="#E1DFDB" stroke-opacity="0.2"/>
<line x1="278.5" y1="19" x2="278.5" y2="935" stroke="#E1DFDB" stroke-opacity="0.2"/>
<line x1="463.5" y1="19" x2="463.5" y2="935" stroke="#E1DFDB" stroke-opacity="0.2"/>
<line x1="538.5" y1="19" x2="538.5" y2="935" stroke="#E1DFDB" stroke-opacity="0.2"/>
<line x1="555" y1="19.5" y2="19.5" stroke="#E1DFDB" stroke-opacity="0.2"/>
<line x1="555" y1="226.5" y2="226.5" stroke="#E1DFDB" stroke-opacity="0.2"/>
<line x1="555" y1="401.5" y2="401.5" stroke="#E1DFDB" stroke-opacity="0.2"/>
<line x1="555" y1="585.5" y2="585.5" stroke="#E1DFDB" stroke-opacity="0.2"/>
<line x1="555" y1="760.5" y2="760.5" stroke="#E1DFDB" stroke-opacity="0.2"/>
<line x1="555" y1="76.5" y2="76.5" stroke="#E1DFDB" stroke-opacity="0.2"/>
<line x1="555" y1="283.5" y2="283.5" stroke="#E1DFDB" stroke-opacity="0.2"/>
<line x1="555" y1="458.5" y2="458.5" stroke="#E1DFDB" stroke-opacity="0.2"/>
<line x1="555" y1="642.5" y2="642.5" stroke="#E1DFDB" stroke-opacity="0.2"/>
<line x1="555" y1="817.5" y2="817.5" stroke="#E1DFDB" stroke-opacity="0.2"/>
<line x1="555" y1="935.5" y2="935.5" stroke="#E1DFDB" stroke-opacity="0.2"/>
</svg>
