<svg width="28" height="44" viewBox="0 0 28 44" fill="none" xmlns="http://www.w3.org/2000/svg">
<path d="M14.9877 18.8397C12.2479 18.8397 9.72678 19.7525 7.68925 21.2728C7.88961 14.9269 12.7952 8.57839 22.4747 2.22861L21.0385 0C7.01327 8.71377 0 18.2773 0 28.6887C0 33.4702 1.30074 37.2169 3.9048 39.9233C6.50725 42.6352 9.802 43.9875 13.7865 43.9875C17.7729 43.9875 20.9851 42.8999 23.4297 40.7209C25.8728 38.5448 27.0961 35.9126 27.0961 32.8329C27.0961 32.798 27.0897 32.7728 27.0897 32.7356C27.1646 32.1896 27.2171 31.6375 27.2171 31.0671C27.2171 24.316 21.7398 18.8397 14.9877 18.8397Z" fill="#E1DFDB"/>
</svg>
