<svg width="466" height="39" viewBox="0 0 466 39" fill="none" xmlns="http://www.w3.org/2000/svg">
<mask id="mask0_54_147" style="mask-type:luminance" maskUnits="userSpaceOnUse" x="0" y="0" width="38" height="39">
<path d="M0 0.498535H37.6667V38.5149H0V0.498535Z" fill="white"/>
</mask>
<g mask="url(#mask0_54_147)">
<path d="M9.21486 28.8907L8.07942 31.7609C7.64443 32.8437 7.47227 33.6572 7.56426 34.2C7.65494 34.7401 7.84418 35.1357 8.13198 35.388C8.41847 35.6403 8.70628 35.8847 8.99408 36.1187C9.28451 36.3499 9.43038 36.6837 9.43038 37.1174C9.43038 37.6221 9.21223 37.9664 8.77856 38.1477C8.34751 38.3265 7.82447 38.4158 7.21207 38.4158H2.5599C1.80294 38.4158 1.19842 38.3265 0.746349 38.1477C0.294275 37.9664 0.0682373 37.6405 0.0682373 37.17C0.0682373 36.7008 0.220681 36.3499 0.525568 36.1187C0.833084 35.8847 1.22208 35.6403 1.69255 35.388C2.16171 35.1357 2.64927 34.7401 3.15391 34.2C3.65855 33.6572 4.12771 32.8437 4.5627 31.7609L14.5189 6.65496C14.8408 5.82441 14.9302 5.1936 14.7869 4.76256C14.6424 4.32888 14.4085 3.98457 14.0825 3.73225C13.7593 3.47993 13.4439 3.21972 13.1363 2.949C12.8315 2.6796 12.679 2.31032 12.679 1.83984C12.679 0.975119 13.2178 0.541443 14.2981 0.541443H19.8176C20.6481 0.541443 21.2264 0.938322 21.5523 1.72945L33.343 31.6505C33.7767 32.7688 34.2288 33.5994 34.6992 34.1421C35.1684 34.6823 35.6008 35.0778 35.9976 35.3302C36.3932 35.5825 36.7178 35.8177 36.9701 36.0345C37.2225 36.2527 37.3486 36.5957 37.3486 37.0649C37.3486 37.5695 37.1397 37.9217 36.7231 38.1214C36.3091 38.3186 35.5981 38.4158 34.5889 38.4158H27.0665C25.4817 38.4158 24.6905 38.0005 24.6905 37.17C24.6905 36.6653 24.8509 36.2869 25.1741 36.0345C25.5001 35.7822 25.8431 35.522 26.2044 35.2513C26.5645 34.9819 26.809 34.5771 26.9351 34.037C27.0613 33.4943 26.9062 32.6992 26.4725 31.6505L25.4475 28.9485C25.3029 28.553 25.14 28.2376 24.9586 28.0023C24.7799 27.7684 24.4461 27.6055 23.9598 27.5135C23.4723 27.4228 22.7219 27.3689 21.71 27.3505C20.7007 27.3334 19.2761 27.3242 17.4363 27.3242C15.5255 27.3242 14.0471 27.3334 12.9997 27.3505C11.9549 27.3689 11.1887 27.4228 10.7025 27.5135C10.2149 27.6055 9.87983 27.7592 9.69847 27.9761C9.51975 28.1903 9.3581 28.4952 9.21486 28.8907ZM17.4941 24.4541C19.5469 24.4541 20.9977 24.437 21.8467 24.4015C22.6943 24.3673 23.1635 24.2517 23.2555 24.0546C23.3461 23.8548 23.3001 23.521 23.1188 23.0505L17.2733 8.16889L11.4857 23.0505C11.307 23.521 11.2702 23.8548 11.3754 24.0546C11.4831 24.2517 11.9878 24.3673 12.8893 24.4015C13.7934 24.437 15.3284 24.4541 17.4941 24.4541Z" fill="#E1DFDB"/>
</g>
<path d="M58.4955 6.06097V29.9736C58.4955 31.5611 58.6585 32.7255 58.9844 33.464C59.3103 34.2039 59.6888 34.7283 60.1198 35.0358C60.5535 35.3407 60.932 35.6193 61.2553 35.8716C61.5812 36.1239 61.7441 36.5392 61.7441 37.1174C61.7441 37.5879 61.5352 37.9217 61.1186 38.1215C60.7046 38.3186 59.9753 38.4158 58.9318 38.4158H51.625C49.7497 38.4158 48.8127 37.9835 48.8127 37.1174C48.8127 36.5392 48.9822 36.1239 49.3226 35.8716C49.6656 35.6193 50.0533 35.3407 50.4843 35.0358C50.918 34.7283 51.307 34.2039 51.6513 33.464C51.9943 32.7255 52.1665 31.5611 52.1665 29.9736V6.11354C52.1665 5.24882 51.968 4.60881 51.5725 4.19485C51.1756 3.77826 50.4909 3.56931 49.5171 3.56931C48.2161 3.56931 47.1963 3.75855 46.4577 4.13703C45.7178 4.51551 45.087 5.09374 44.5653 5.87173C44.0423 6.64709 43.4746 7.63009 42.8622 8.82073C42.1394 10.2269 41.4547 10.9287 40.8068 10.9287C40.2627 10.9287 39.9197 10.7223 39.7765 10.3084C39.6319 9.89178 39.578 9.39634 39.6135 8.82073C39.6477 7.41194 39.7292 6.2213 39.8553 5.24619C39.9815 4.27239 40.1523 3.38926 40.3705 2.59682C40.5518 1.87534 40.9224 1.35362 41.4796 1.03033C42.0395 0.704415 43.1486 0.541458 44.8071 0.541458L65.8023 0.488892C67.4976 0.488892 68.6251 0.661048 69.1824 1.00405C69.7422 1.34442 70.1128 1.87534 70.2915 2.59682C70.6871 4.00298 70.9394 6.05834 71.0485 8.76291C71.0866 9.34114 71.0235 9.83921 70.8592 10.2558C70.6976 10.6698 70.3467 10.8761 69.8079 10.8761C69.1942 10.8761 68.5266 10.1914 67.8051 8.82073C67.1914 7.63009 66.6223 6.64709 66.0967 5.87173C65.5736 5.09374 64.9428 4.50762 64.2043 4.11074C63.4644 3.71518 62.4459 3.51674 61.1501 3.51674C60.2105 3.51674 59.5324 3.72569 59.1158 4.14228C58.7018 4.55625 58.4955 5.19625 58.4955 6.06097Z" fill="#E1DFDB"/>
<path d="M103.13 27.9708C103.595 28.0799 103.883 28.3151 103.992 28.6752C104.1 29.0366 104.137 29.5242 104.103 30.1366C104.029 31.5454 103.92 32.7373 103.777 33.7111C103.632 34.6823 103.452 35.5654 103.235 36.3605C103.056 37.0438 102.695 37.5577 102.152 37.9007C101.612 38.245 100.494 38.4158 98.7986 38.4158H77.5353C75.6245 38.4158 74.6704 37.9835 74.6704 37.1174C74.6704 36.6128 74.8137 36.2435 75.1015 36.0083C75.3879 35.7744 75.7296 35.5391 76.1265 35.3039C76.526 35.07 76.8953 34.7454 77.2357 34.3314C77.5787 33.9187 77.8047 33.3142 77.9138 32.5178C77.9874 32.1919 78.0321 31.8594 78.0505 31.5191C78.0675 31.1761 78.0767 30.7148 78.0767 30.1366V8.82073C78.0767 8.24249 78.0675 7.78253 78.0505 7.43822C78.0321 7.09522 77.9874 6.76274 77.9138 6.43945C77.8047 5.6089 77.5787 4.99649 77.2357 4.59962C76.8953 4.20405 76.526 3.88865 76.1265 3.65341C75.7296 3.41949 75.3879 3.17506 75.1015 2.92273C74.8137 2.67041 74.6704 2.31033 74.6704 1.83986C74.6704 0.975135 75.6245 0.541458 77.5353 0.541458L97.9365 0.488892C99.4846 0.488892 100.52 0.63345 101.043 0.919939C101.569 1.20774 101.938 1.6585 102.152 2.27091C102.443 2.9937 102.723 3.82426 102.993 4.76257C103.263 5.69826 103.489 6.76274 103.672 7.95338C103.777 8.56709 103.792 9.07174 103.719 9.4673C103.648 9.86418 103.398 10.1349 102.967 10.2821C102.497 10.4266 102.081 10.3544 101.721 10.0666C101.36 9.77613 100.981 9.28857 100.586 8.60521C99.5766 6.90993 98.4582 5.62861 97.2321 4.76257C96.0046 3.89785 94.4723 3.46417 92.6325 3.46417H89.8727C88.2852 3.46417 87.0933 3.55616 86.2982 3.73752C85.5057 3.91625 84.984 4.18697 84.7317 4.54705C84.4794 4.90845 84.3532 5.37629 84.3532 5.95058V14.1773C84.3532 15.4047 84.7133 16.1525 85.4361 16.4219C86.1576 16.6926 87.2037 16.8267 88.5743 16.8267H90.5193C91.384 16.8267 92.0332 16.6203 92.4643 16.2064C92.8979 15.7898 93.2239 15.3022 93.442 14.745C93.6589 14.1852 93.8849 13.6976 94.1201 13.2837C94.354 12.871 94.7246 12.6634 95.2293 12.6634C95.7339 12.6634 96.0756 12.8815 96.2543 13.3152C96.4357 13.7462 96.5277 14.5216 96.5277 15.6386V21.3737C96.5277 23.1058 96.094 23.9705 95.2293 23.9705C94.7246 23.9705 94.354 23.755 94.1201 23.3239C93.8849 22.8902 93.6589 22.4027 93.442 21.8626C93.2239 21.3198 92.8979 20.8322 92.4643 20.4012C92.0332 19.9675 91.384 19.7494 90.5193 19.7494H88.5743C87.2037 19.7494 86.1576 19.8755 85.4361 20.1278C84.7133 20.3802 84.3532 21.1371 84.3532 22.3987V32.8963C84.3532 33.51 84.4873 34.0055 84.758 34.384C85.0274 34.7624 85.5688 35.0437 86.3823 35.225C87.1945 35.4038 88.4127 35.4931 90.0357 35.4931L93.9309 35.4406C95.3357 35.4406 96.4436 35.2434 97.2531 34.8465C98.0653 34.447 98.725 33.8517 99.2296 33.0593C99.7369 32.2682 100.261 31.276 100.801 30.084C101.235 29.1457 101.632 28.5412 101.989 28.2704C102.349 28.001 102.731 27.9012 103.13 27.9708Z" fill="#E1DFDB"/>
<path d="M134.287 27.9708C134.756 28.0799 135.045 28.3151 135.154 28.6752C135.262 29.0366 135.298 29.5241 135.26 30.1366C135.189 31.5453 135.081 32.7373 134.934 33.7111C134.789 34.6823 134.61 35.5654 134.397 36.3605C134.215 37.0438 133.852 37.5577 133.309 37.9007C132.769 38.245 131.653 38.4158 129.961 38.4158H110.858C108.947 38.4158 107.993 37.9835 107.993 37.1174C107.993 36.6128 108.136 36.2435 108.424 36.0083C108.711 35.7743 109.052 35.5391 109.449 35.3039C109.849 35.0699 110.218 34.7453 110.558 34.3314C110.901 33.9187 111.127 33.3142 111.237 32.5178C111.31 32.1919 111.355 31.8594 111.373 31.5191C111.39 31.1761 111.399 30.7148 111.399 30.1366V8.98367C111.399 7.39615 111.237 6.23311 110.911 5.49324C110.587 4.75467 110.201 4.23163 109.749 3.92674C109.297 3.61923 108.908 3.338 108.582 3.08568C108.259 2.83336 108.098 2.41808 108.098 1.83984C108.098 1.3352 108.314 0.993517 108.745 0.81479C109.179 0.633435 109.92 0.541443 110.968 0.541443H118.217C120.127 0.541443 121.082 0.975119 121.082 1.83984C121.082 2.41808 120.91 2.83336 120.567 3.08568C120.227 3.338 119.831 3.61923 119.379 3.92674C118.93 4.23163 118.534 4.75467 118.191 5.49324C117.847 6.23311 117.676 7.39615 117.676 8.98367V32.8963C117.676 33.7978 117.955 34.4562 118.512 34.8728C119.072 35.2868 120.29 35.4931 122.165 35.4931L125.088 35.4405C126.497 35.4405 127.606 35.2434 128.415 34.8465C129.228 34.447 129.887 33.8517 130.392 33.0593C130.897 32.2681 131.418 31.2759 131.958 30.084C132.392 29.1457 132.79 28.5411 133.152 28.2704C133.512 28.001 133.89 27.9011 134.287 27.9708Z" fill="#E1DFDB"/>
<path d="M141.855 29.9736V8.98367C141.855 7.39615 141.692 6.23311 141.366 5.49324C141.043 4.75467 140.657 4.23163 140.205 3.92674C139.753 3.61923 139.364 3.338 139.038 3.08568C138.714 2.83336 138.554 2.41808 138.554 1.83984C138.554 1.3352 138.77 0.993517 139.201 0.81479C139.634 0.633435 140.375 0.541443 141.424 0.541443H148.673C150.583 0.541443 151.538 0.975119 151.538 1.83984C151.538 2.41808 151.366 2.83336 151.023 3.08568C150.683 3.338 150.287 3.61923 149.835 3.92674C149.385 4.23163 148.99 4.75467 148.647 5.49324C148.303 6.23311 148.132 7.39615 148.132 8.98367V29.9736C148.132 31.5611 148.292 32.7255 148.615 33.464C148.941 34.2039 149.33 34.7283 149.782 35.0358C150.234 35.3407 150.621 35.6193 150.944 35.8716C151.27 36.1239 151.433 36.5392 151.433 37.1174C151.433 37.5879 151.215 37.9217 150.781 38.1214C150.35 38.3186 149.61 38.4158 148.563 38.4158H141.314C139.403 38.4158 138.449 37.9835 138.449 37.1174C138.449 36.5392 138.618 36.1239 138.959 35.8716C139.302 35.6193 139.697 35.3407 140.147 35.0358C140.599 34.7283 140.996 34.2039 141.34 33.464C141.683 32.7255 141.855 31.5611 141.855 29.9736Z" fill="#E1DFDB"/>
<path d="M183.895 27.9708C184.36 28.0799 184.648 28.3151 184.757 28.6752C184.864 29.0366 184.901 29.5242 184.867 30.1366C184.793 31.5454 184.684 32.7373 184.541 33.7111C184.397 34.6823 184.217 35.5654 184 36.3605C183.821 37.0438 183.46 37.5577 182.917 37.9007C182.377 38.245 181.258 38.4158 179.563 38.4158H158.3C156.389 38.4158 155.435 37.9835 155.435 37.1174C155.435 36.6128 155.578 36.2435 155.866 36.0083C156.152 35.7744 156.494 35.5391 156.891 35.3039C157.291 35.07 157.66 34.7454 158 34.3314C158.343 33.9187 158.569 33.3142 158.678 32.5178C158.752 32.1919 158.797 31.8594 158.815 31.5191C158.832 31.1761 158.841 30.7148 158.841 30.1366V8.82073C158.841 8.24249 158.832 7.78253 158.815 7.43822C158.797 7.09522 158.752 6.76274 158.678 6.43945C158.569 5.6089 158.343 4.99649 158 4.59962C157.66 4.20405 157.291 3.88865 156.891 3.65341C156.494 3.41949 156.152 3.17506 155.866 2.92273C155.578 2.67041 155.435 2.31033 155.435 1.83986C155.435 0.975135 156.389 0.541458 158.3 0.541458L178.701 0.488892C180.249 0.488892 181.285 0.63345 181.808 0.919939C182.333 1.20774 182.703 1.6585 182.917 2.27091C183.207 2.9937 183.487 3.82426 183.758 4.76257C184.027 5.69826 184.253 6.76274 184.436 7.95338C184.541 8.56709 184.557 9.07174 184.483 9.4673C184.412 9.86418 184.163 10.1349 183.732 10.2821C183.261 10.4266 182.846 10.3544 182.486 10.0666C182.124 9.77613 181.746 9.28857 181.35 8.60521C180.341 6.90993 179.223 5.62861 177.997 4.76257C176.769 3.89785 175.237 3.46417 173.397 3.46417H170.637C169.05 3.46417 167.858 3.55616 167.063 3.73752C166.27 3.91625 165.749 4.18697 165.496 4.54705C165.244 4.90845 165.118 5.37629 165.118 5.95058V14.1773C165.118 15.4047 165.478 16.1525 166.201 16.4219C166.922 16.6926 167.968 16.8267 169.339 16.8267H171.284C172.149 16.8267 172.798 16.6203 173.229 16.2064C173.662 15.7898 173.988 15.3022 174.207 14.745C174.423 14.1852 174.649 13.6976 174.885 13.2837C175.119 12.871 175.489 12.6634 175.994 12.6634C176.498 12.6634 176.84 12.8815 177.019 13.3152C177.2 13.7462 177.292 14.5216 177.292 15.6386V21.3737C177.292 23.1058 176.859 23.9705 175.994 23.9705C175.489 23.9705 175.119 23.755 174.885 23.3239C174.649 22.8902 174.423 22.4027 174.207 21.8626C173.988 21.3198 173.662 20.8322 173.229 20.4012C172.798 19.9675 172.149 19.7494 171.284 19.7494H169.339C167.968 19.7494 166.922 19.8755 166.201 20.1278C165.478 20.3802 165.118 21.1371 165.118 22.3987V32.8963C165.118 33.51 165.252 34.0055 165.523 34.384C165.792 34.7624 166.333 35.0437 167.147 35.225C167.959 35.4038 169.177 35.4931 170.8 35.4931L174.695 35.4406C176.1 35.4406 177.208 35.2434 178.018 34.8465C178.83 34.447 179.49 33.8517 179.994 33.0593C180.501 32.2682 181.026 31.276 181.566 30.084C182 29.1457 182.396 28.5412 182.754 28.2704C183.114 28.001 183.495 27.9012 183.895 27.9708Z" fill="#E1DFDB"/>
<path d="M213.212 24.3489L217.648 32.1393C218.153 33.0409 218.666 33.7164 219.189 34.1684C219.714 34.6205 220.183 34.9727 220.597 35.225C221.01 35.4773 221.344 35.7297 221.596 35.982C221.849 36.2343 221.975 36.6128 221.975 37.1174C221.975 37.9835 221.163 38.4158 219.541 38.4158H212.618C211.752 38.4158 211.093 38.3186 210.641 38.1214C210.189 37.9217 209.963 37.5511 209.963 37.007C209.963 36.6115 210.097 36.2698 210.368 35.982C210.641 35.6915 210.912 35.3853 211.183 35.0621C211.452 34.7361 211.605 34.3301 211.64 33.8425C211.678 33.3563 211.463 32.7163 210.994 31.9238L207.529 25.6999C206.52 25.809 205.439 25.8629 204.286 25.8629H199.523C198.801 25.8629 198.441 26.2243 198.441 26.9457V29.9736C198.441 31.5611 198.601 32.7255 198.924 33.464C199.25 34.2039 199.639 34.7283 200.091 35.0358C200.543 35.3407 200.93 35.6193 201.253 35.8716C201.579 36.1239 201.742 36.5392 201.742 37.1174C201.742 37.5879 201.524 37.9217 201.09 38.1214C200.659 38.3186 199.919 38.4158 198.872 38.4158H191.623C189.712 38.4158 188.758 37.9835 188.758 37.1174C188.758 36.5392 188.927 36.1239 189.268 35.8716C189.611 35.6193 190.006 35.3407 190.456 35.0358C190.908 34.7283 191.305 34.2039 191.649 33.464C191.992 32.7255 192.164 31.5611 192.164 29.9736V8.82071C192.164 8.24248 192.155 7.78252 192.138 7.43821C192.119 7.09521 192.075 6.76272 192.001 6.43944C191.892 5.60888 191.666 4.99648 191.323 4.5996C190.983 4.20403 190.613 3.88863 190.214 3.6534C189.817 3.41947 189.475 3.17504 189.189 2.92272C188.901 2.6704 188.758 2.31032 188.758 1.83984C188.758 0.975119 189.712 0.541443 191.623 0.541443H202.446C206.378 0.541443 209.66 1.11968 212.292 2.27615C214.923 3.42999 216.898 4.98859 218.216 6.95459C219.533 8.92059 220.193 11.1481 220.193 13.6358C220.193 18.7953 217.865 22.3659 213.212 24.3489ZM204.065 22.9927C206.843 22.9927 209.117 22.3278 210.883 20.9952C212.652 19.66 213.538 17.5139 213.538 14.5558C213.538 12.39 213.076 10.47 212.155 8.79443C211.237 7.11624 209.929 5.79024 208.234 4.81512C206.537 3.84132 204.554 3.35377 202.283 3.35377C200.66 3.35377 199.614 3.45364 199.145 3.6534C198.674 3.85052 198.441 4.23689 198.441 4.81512V21.3737C198.441 21.9493 198.79 22.3619 199.492 22.6142C200.196 22.8666 201.721 22.9927 204.065 22.9927Z" fill="#E1DFDB"/>
<path d="M267.146 15.8542C270.391 16.4324 272.905 17.6506 274.69 19.5075C276.477 21.3658 277.371 23.6104 277.371 26.2414C277.371 30.0301 275.989 33.0067 273.228 35.1725C270.47 37.3356 266.313 38.4158 260.76 38.4158H249.505C247.594 38.4158 246.64 37.9835 246.64 37.1174C246.64 36.6128 246.783 36.2435 247.071 36.0083C247.358 35.7743 247.699 35.5391 248.096 35.3039C248.496 35.0699 248.865 34.7453 249.205 34.3314C249.548 33.9187 249.774 33.3142 249.883 32.5178C249.957 32.1919 250.002 31.8594 250.02 31.5191C250.037 31.1761 250.046 30.7148 250.046 30.1366V8.82071C250.046 8.24248 250.037 7.78252 250.02 7.43821C250.002 7.09521 249.957 6.76272 249.883 6.43944C249.774 5.60888 249.548 4.99648 249.205 4.5996C248.865 4.20403 248.496 3.88863 248.096 3.6534C247.699 3.41947 247.358 3.17504 247.071 2.92272C246.783 2.6704 246.64 2.31032 246.64 1.83984C246.64 0.975119 247.594 0.541443 249.505 0.541443H259.409C263.484 0.541443 266.738 1.20116 269.17 2.51795C271.605 3.83212 272.842 5.93348 272.881 8.82071C272.881 10.587 272.374 12.0746 271.362 13.2836C270.353 14.4927 268.947 15.3495 267.146 15.8542ZM256.323 5.40913V13.4203C256.323 13.9249 256.592 14.2404 257.132 14.3665C257.675 14.4927 258.397 14.5558 259.298 14.5558C261.75 14.5558 263.563 14.1694 264.734 13.394C265.907 12.616 266.495 11.3623 266.495 9.63024C266.495 7.82589 265.827 6.34745 264.492 5.1936C263.157 4.04108 261.371 3.46416 259.135 3.46416C258.126 3.46416 257.403 3.59952 256.969 3.86892C256.538 4.13964 256.323 4.65217 256.323 5.40913ZM260.649 35.4931C264.006 35.4931 266.468 34.836 268.035 33.5219C269.604 32.2051 270.39 30.176 270.39 27.4346C270.39 24.5474 269.407 22.1924 267.441 20.3696C265.475 18.5482 262.67 17.6362 259.03 17.6362C257.981 17.6362 257.269 17.765 256.891 18.0199C256.512 18.2722 256.323 18.7769 256.323 19.5338V31.7083C256.323 33.1486 256.609 34.1408 257.185 34.6836C257.763 35.2237 258.917 35.4931 260.649 35.4931Z" fill="#E1DFDB"/>
<path d="M308.045 0.541443H312.86C313.617 0.541443 314.228 0.624236 314.694 0.788507C315.164 0.95015 315.399 1.28263 315.399 1.78728C315.399 2.25381 315.236 2.60469 314.91 2.83861C314.587 3.07385 314.154 3.29989 313.611 3.51672C313.071 3.73488 312.494 4.07787 311.882 4.54703C311.268 5.01356 310.655 5.71664 310.042 6.65496L300.522 21.6418V29.9736C300.522 31.5611 300.683 32.7255 301.006 33.464C301.332 34.2039 301.718 34.7283 302.168 35.0358C302.62 35.3407 303.009 35.6193 303.335 35.8716C303.661 36.1239 303.824 36.5392 303.824 37.1174C303.824 37.5879 303.605 37.9217 303.172 38.1214C302.741 38.3186 302.001 38.4158 300.953 38.4158H293.652C291.773 38.4158 290.834 37.9835 290.834 37.1174C290.834 36.5392 291.005 36.1239 291.349 35.8716C291.692 35.6193 292.08 35.3407 292.511 35.0358C292.945 34.7283 293.334 34.2039 293.678 33.464C294.021 32.7255 294.193 31.5611 294.193 29.9736V21.6418L284.074 6.87049C283.422 5.89669 282.789 5.16601 282.177 4.67845C281.563 4.19221 281.031 3.82161 280.579 3.56929C280.129 3.31697 279.77 3.07385 279.501 2.83861C279.23 2.60469 279.096 2.27089 279.096 1.83984C279.096 1.30103 279.312 0.95015 279.743 0.788507C280.176 0.624236 280.827 0.541443 281.693 0.541443H290.456C291.177 0.541443 291.745 0.624236 292.159 0.788507C292.576 0.95015 292.785 1.28263 292.785 1.78728C292.785 2.25381 292.629 2.6152 292.322 2.87015C292.017 3.12247 291.71 3.37479 291.402 3.62711C291.097 3.87943 290.945 4.25792 290.945 4.76256C290.945 5.2672 291.251 5.98736 291.865 6.92305L299.277 18.125L306.31 6.65496C306.888 5.71664 307.194 5.01356 307.23 4.54703C307.264 4.07787 307.164 3.72568 306.93 3.49044C306.699 3.25652 306.455 3.03048 306.2 2.81233C305.947 2.59549 305.821 2.27089 305.821 1.83984C305.821 1.3352 306.038 0.993517 306.473 0.81479C306.907 0.633435 307.431 0.541443 308.045 0.541443Z" fill="#E1DFDB"/>
<path d="M342.279 0.541443H354.343C358.13 0.541443 361.378 1.075 364.084 2.13947C366.788 3.20132 368.989 4.62588 370.686 6.41315C372.381 8.1978 373.626 10.1717 374.418 12.3374C375.213 14.5006 375.612 16.6637 375.612 18.8294C375.612 21.4262 375.213 23.8969 374.418 26.2414C373.626 28.5858 372.417 30.678 370.791 32.5178C369.168 34.3577 367.113 35.8019 364.625 36.8493C362.136 37.8941 359.179 38.4158 355.752 38.4158H342.279C340.404 38.4158 339.467 37.9835 339.467 37.1174C339.467 36.6128 339.601 36.2435 339.871 36.0083C340.141 35.7743 340.473 35.5391 340.87 35.3039C341.27 35.0699 341.639 34.7453 341.979 34.3314C342.322 33.9187 342.548 33.3142 342.657 32.5178C342.731 32.1919 342.776 31.8594 342.794 31.5191C342.811 31.1761 342.82 30.7148 342.82 30.1366V8.82071C342.82 8.24248 342.811 7.78252 342.794 7.43821C342.776 7.09521 342.731 6.76272 342.657 6.43944C342.548 5.60888 342.322 4.99648 341.979 4.5996C341.639 4.20403 341.27 3.88863 340.87 3.6534C340.473 3.41947 340.141 3.17504 339.871 2.92272C339.601 2.6704 339.467 2.31032 339.467 1.83984C339.467 0.975119 340.404 0.541443 342.279 0.541443ZM355.158 35.6035C358.693 35.6035 361.453 34.9648 363.437 33.6848C365.42 32.4022 366.825 30.6977 367.653 28.5701C368.483 26.4398 368.899 24.1308 368.899 21.6418C368.899 18.1802 368.239 15.0604 366.922 12.2849C365.608 9.50671 363.733 7.30548 361.298 5.68248C358.861 4.06079 355.949 3.24863 352.561 3.24863C351.226 3.24863 350.323 3.39319 349.854 3.67968C349.383 3.96748 349.149 4.61537 349.149 5.62465V32.3549C349.149 33.0777 349.293 33.6822 349.58 34.1684C349.871 34.656 350.449 35.0174 351.315 35.2513C352.18 35.4865 353.461 35.6035 355.158 35.6035Z" fill="#E1DFDB"/>
<path d="M397.678 38.9573C394.177 38.9573 391.091 38.1833 388.421 36.6339C385.753 35.0818 383.661 32.9529 382.144 30.247C380.63 27.5424 379.873 24.4384 379.873 20.9374C379.873 18.0541 380.369 15.3417 381.361 12.8001C382.356 10.2558 383.754 8.02964 385.556 6.11884C387.36 4.20541 389.478 2.70725 391.911 1.62438C394.346 0.541499 397.026 6.10352e-05 399.948 6.10352e-05C403.555 6.10352e-05 406.673 0.803019 409.305 2.40762C411.94 4.01354 413.989 6.19637 415.45 8.95745C416.912 11.7159 417.642 14.8265 417.642 18.2881C417.642 21.2463 417.155 23.9797 416.181 26.4885C415.206 28.9946 413.834 31.1853 412.065 33.0593C410.299 34.9346 408.198 36.3868 405.762 37.4171C403.33 38.4435 400.634 38.9573 397.678 38.9573ZM400.222 35.2776C402.745 35.2776 404.835 34.656 406.493 33.4115C408.154 32.1683 409.389 30.5282 410.199 28.4913C411.011 26.4517 411.419 24.2412 411.419 21.8573C411.419 19.4787 411.103 17.1881 410.472 14.9869C409.842 12.7869 408.922 10.8117 407.713 9.06258C406.504 7.31473 405.05 5.92697 403.355 4.89929C401.662 3.86898 399.751 3.35382 397.625 3.35382C395.098 3.35382 392.986 3.99514 391.291 5.27777C389.594 6.55777 388.313 8.19785 387.448 10.198C386.582 12.1995 386.15 14.3009 386.15 16.5008C386.15 18.9924 386.473 21.3658 387.122 23.6183C387.774 25.8721 388.704 27.8749 389.913 29.6267C391.123 31.3759 392.601 32.7544 394.35 33.7637C396.098 34.773 398.056 35.2776 400.222 35.2776Z" fill="#E1DFDB"/>
<path d="M448.096 27.9708C448.565 28.0799 448.854 28.3151 448.963 28.6752C449.071 29.0366 449.106 29.5241 449.068 30.1366C448.997 31.5453 448.889 32.7373 448.742 33.7111C448.598 34.6823 448.419 35.5654 448.206 36.3605C448.023 37.0438 447.661 37.5577 447.118 37.9007C446.578 38.245 445.462 38.4158 443.769 38.4158H424.667C422.756 38.4158 421.802 37.9835 421.802 37.1174C421.802 36.6128 421.945 36.2435 422.233 36.0083C422.519 35.7743 422.861 35.5391 423.258 35.3039C423.657 35.0699 424.027 34.7453 424.367 34.3314C424.71 33.9187 424.936 33.3142 425.045 32.5178C425.119 32.1919 425.163 31.8594 425.182 31.5191C425.199 31.1761 425.208 30.7148 425.208 30.1366V8.98367C425.208 7.39615 425.045 6.23311 424.719 5.49324C424.396 4.75467 424.01 4.23163 423.557 3.92674C423.105 3.61923 422.716 3.338 422.391 3.08568C422.067 2.83336 421.907 2.41808 421.907 1.83984C421.907 1.3352 422.122 0.993517 422.553 0.81479C422.987 0.633435 423.728 0.541443 424.777 0.541443H432.026C433.935 0.541443 434.891 0.975119 434.891 1.83984C434.891 2.41808 434.719 2.83336 434.376 3.08568C434.035 3.338 433.64 3.61923 433.188 3.92674C432.738 4.23163 432.343 4.75467 432 5.49324C431.655 6.23311 431.485 7.39615 431.485 8.98367V32.8963C431.485 33.7978 431.763 34.4562 432.32 34.8728C432.88 35.2868 434.098 35.4931 435.974 35.4931L438.896 35.4405C440.305 35.4405 441.414 35.2434 442.224 34.8465C443.036 34.447 443.696 33.8517 444.2 33.0593C444.705 32.2681 445.227 31.2759 445.767 30.084C446.201 29.1457 446.599 28.5411 446.96 28.2704C447.32 28.001 447.699 27.9011 448.096 27.9708Z" fill="#E1DFDB"/>
<path d="M455.664 29.9736V8.98367C455.664 7.39615 455.501 6.23311 455.175 5.49324C454.852 4.75467 454.465 4.23163 454.013 3.92674C453.561 3.61923 453.172 3.338 452.846 3.08568C452.523 2.83336 452.363 2.41808 452.363 1.83984C452.363 1.3352 452.578 0.993517 453.009 0.81479C453.443 0.633435 454.184 0.541443 455.233 0.541443H462.482C464.391 0.541443 465.347 0.975119 465.347 1.83984C465.347 2.41808 465.175 2.83336 464.832 3.08568C464.491 3.338 464.096 3.61923 463.644 3.92674C463.194 4.23163 462.799 4.75467 462.456 5.49324C462.111 6.23311 461.94 7.39615 461.94 8.98367V29.9736C461.94 31.5611 462.101 32.7255 462.424 33.464C462.75 34.2039 463.139 34.7283 463.591 35.0358C464.043 35.3407 464.429 35.6193 464.753 35.8716C465.079 36.1239 465.242 36.5392 465.242 37.1174C465.242 37.5879 465.023 37.9217 464.59 38.1214C464.159 38.3186 463.419 38.4158 462.371 38.4158H455.123C453.212 38.4158 452.258 37.9835 452.258 37.1174C452.258 36.5392 452.427 36.1239 452.768 35.8716C453.111 35.6193 453.506 35.3407 453.956 35.0358C454.408 34.7283 454.804 34.2039 455.149 33.464C455.492 32.7255 455.664 31.5611 455.664 29.9736Z" fill="#E1DFDB"/>
</svg>
